<?xml version="1.0" encoding="UTF-8"?>
<!DOCTYPE svg PUBLIC "-//W3C//DTD SVG 1.0//EN" "http://www.w3.org/TR/2001/REC-SVG-20010904/DTD/svg10.dtd">
<!-- Creator: CorelDRAW -->
<svg xmlns="http://www.w3.org/2000/svg" xml:space="preserve" width="1050px" height="256px" version="1.0" style="shape-rendering:geometricPrecision; text-rendering:geometricPrecision; image-rendering:optimizeQuality; fill-rule:evenodd; clip-rule:evenodd"
viewBox="0 0 2373.66 578.557"
 xmlns:xlink="http://www.w3.org/1999/xlink"
 xmlns:xodm="http://www.corel.com/coreldraw/odm/2003">
 <defs>
  <style type="text/css">
   <![CDATA[
    .fil0 {fill:black;fill-rule:nonzero}
   ]]>
  </style>
 </defs>
 <g id="Camada_x0020_1">
  <metadata id="CorelCorpID_0Corel-Layer"/>
  <path class="fil0" d="M245.523 537.407l0 30.451c0,7.132 -3.732,10.699 -11.196,10.699l-115.964 0c-36.789,0 -65.713,-10.699 -86.773,-32.097 -21.06,-21.397 -31.59,-51.299 -31.59,-89.705l0 -176.118c0,-38.406 10.53,-68.308 31.59,-89.705 21.06,-21.398 49.984,-32.096 86.773,-32.096l115.964 0c7.464,0 11.196,3.84 11.196,11.521l0 30.451c0,7.132 -3.732,10.698 -11.196,10.698l-109.566 0c-44.253,0 -66.379,23.867 -66.379,71.6l0 171.18c0,47.733 22.126,71.6 66.379,71.6l109.566 0c7.464,0 11.196,3.84 11.196,11.521z"/>
  <path id="_1" class="fil0" d="M506.242 578.557l-68.778 0c-36.789,0 -65.713,-10.699 -86.773,-32.097 -21.06,-21.397 -31.59,-51.299 -31.59,-89.705l0 -176.118c0,-38.406 10.53,-68.308 31.59,-89.705 21.06,-21.398 49.984,-32.096 86.773,-32.096l68.778 0c36.789,0 65.713,10.698 86.773,32.096 21.06,21.397 31.59,51.299 31.59,89.705l0 176.118c0,38.406 -10.53,68.308 -31.59,89.705 -21.06,21.398 -49.984,32.097 -86.773,32.097zm-62.38 -52.671l55.982 0c44.786,0 67.179,-23.592 67.179,-70.777l0 -172.826c0,-47.184 -22.393,-70.777 -67.179,-70.777l-55.982 0c-44.786,0 -67.179,23.593 -67.179,70.777l0 172.826c0,47.185 22.393,70.777 67.179,70.777z"/>
  <path id="_2" class="fil0" d="M774.158 578.557l-35.988 0c-7.465,0 -11.197,-3.841 -11.197,-11.522l0 -396.678c0,-7.681 3.732,-11.521 11.197,-11.521l35.988 0c7.465,0 11.197,3.84 11.197,11.521l0 32.92 3.199 0c5.332,-12.071 15.462,-22.495 30.391,-31.274 14.928,-8.778 32.523,-13.167 52.783,-13.167l31.19 0c6.932,0 10.397,3.84 10.397,11.521l0 30.451c0,3.84 -0.8,6.721 -2.399,8.641 -1.6,1.92 -4.265,2.606 -7.998,2.057l-43.186 0c-23.993,0 -42.387,7.407 -55.183,22.221 -12.796,14.814 -19.194,35.114 -19.194,60.901l0 272.407c0,7.681 -3.732,11.522 -11.197,11.522z"/>
  <path id="_3" class="fil0" d="M1137.245 578.557l-41.587 0c-36.788,0 -65.713,-10.699 -86.773,-32.097 -21.06,-21.397 -31.59,-51.299 -31.59,-89.705l0 -176.118c0,-38.406 10.53,-68.308 31.59,-89.705 21.06,-21.398 49.985,-32.096 86.773,-32.096l173.546 0c7.464,0 11.197,3.84 11.197,11.521l0 396.678c0,7.681 -3.733,11.522 -11.197,11.522l-35.989 0c-7.464,0 -11.196,-3.841 -11.196,-11.522l0 -32.096 -3.199 0c-13.329,29.078 -40.521,43.618 -81.575,43.618zm84.774 -128.386l0 -231.258c0,-4.938 -2.666,-7.407 -7.998,-7.407l-111.965 0c-44.253,0 -66.379,23.867 -66.379,71.6l0 171.18c0,47.733 22.126,71.6 66.379,71.6l45.586 0c23.993,0 42.387,-6.584 55.183,-19.752 12.796,-13.168 19.194,-31.822 19.194,-55.963z"/>
  <path id="_4" class="fil0" d="M1441.95 578.557l-35.988 0c-7.465,0 -11.197,-3.841 -11.197,-11.522l0 -555.513c0,-7.681 3.732,-11.522 11.197,-11.522l35.988 0c7.465,0 11.197,3.841 11.197,11.522l0 555.513c0,7.681 -3.732,11.522 -11.197,11.522z"/>
  <path id="_5" class="fil0" d="M1571.51 89.705l0 -77.36c0,-7.681 3.465,-11.522 10.397,-11.522l36.788 0c7.465,0 11.197,3.841 11.197,11.522l0 77.36c0,7.681 -3.732,11.522 -11.197,11.522l-36.788 0c-6.932,0 -10.397,-3.841 -10.397,-11.522zm0 477.33l0 -396.678c0,-7.681 3.465,-11.521 10.397,-11.521l36.788 0c7.465,0 11.197,3.84 11.197,11.521l0 396.678c0,7.681 -3.732,11.522 -11.197,11.522l-35.989 0c-7.464,0 -11.196,-3.841 -11.196,-11.522z"/>
  <path id="_6" class="fil0" d="M1715.465 567.035l0 -15.637c0,-9.876 2.666,-18.38 7.998,-25.512l197.538 -311.087 0 -3.293 -187.941 0c-7.465,0 -11.197,-4.114 -11.197,-12.344l0 -28.805c0,-7.681 3.732,-11.521 11.197,-11.521l245.523 0c7.998,0 11.996,3.84 11.996,11.521l0 27.159c0,9.876 -2.399,17.283 -7.198,22.22l-191.14 302.858 0 3.292 193.54 0c7.464,0 11.196,4.115 11.196,12.345l0 28.804c0,7.681 -3.732,11.522 -11.196,11.522l-258.32 0c-7.997,0 -11.996,-3.841 -11.996,-11.522z"/>
  <path id="_7" class="fil0" d="M2358.464 578.557l-169.547 0c-36.788,0 -65.712,-10.699 -86.772,-32.097 -21.061,-21.397 -31.59,-51.299 -31.59,-89.705l0 -176.118c0,-38.406 10.529,-68.308 31.59,-89.705 21.06,-21.398 49.984,-32.096 86.772,-32.096l67.179 0c36.789,0 65.58,10.698 86.373,32.096 20.794,21.397 31.191,51.299 31.191,89.705l0 104.519c0,8.23 -3.732,12.344 -11.197,12.344l-226.329 0c-5.332,0 -7.998,2.47 -7.998,7.407l0 50.202c0,47.733 22.394,71.6 67.179,71.6l163.149 0c7.465,0 11.197,3.84 11.197,11.522l0 29.627c0,7.132 -3.732,10.699 -11.197,10.699zm-222.33 -224.675l172.746 0c5.332,0 7.998,-2.743 7.998,-8.229l0 -63.37c0,-47.184 -22.394,-70.777 -67.18,-70.777l-54.383 0c-44.785,0 -67.179,23.593 -67.179,70.777l0 63.37c0,5.486 2.666,8.229 7.998,8.229z"/>
 </g>
</svg>
